<mxfile host="app.diagrams.net" agent="Mozilla/5.0 (Windows NT 10.0; Win64; x64) AppleWebKit/537.36 (KHTML, like Gecko) Chrome/139.0.0.0 Safari/537.36 Edg/139.0.0.0" version="28.2.0">
  <diagram name="第 1 页" id="8Ck2bFdIGgAKPISxDjTC">
    <mxGraphModel dx="1418" dy="794" grid="1" gridSize="10" guides="1" tooltips="1" connect="1" arrows="1" fold="1" page="1" pageScale="1" pageWidth="827" pageHeight="1169" math="0" shadow="0">
      <root>
        <mxCell id="0" />
        <mxCell id="1" parent="0" />
        <mxCell id="_v5NZ5_ZNPXUxK_kAppA-1" value="&lt;font style=&quot;font-size: 22px;&quot;&gt;&lt;b&gt;rank1&lt;/b&gt;&lt;/font&gt;" style="text;html=1;align=center;verticalAlign=middle;resizable=0;points=[];autosize=1;strokeColor=none;fillColor=none;" vertex="1" parent="1">
          <mxGeometry x="609" y="380" width="80" height="40" as="geometry" />
        </mxCell>
        <mxCell id="_v5NZ5_ZNPXUxK_kAppA-2" value="" style="rounded=1;whiteSpace=wrap;html=1;strokeWidth=2;fillWeight=4;hachureGap=8;hachureAngle=45;fillColor=#DEE2A7;sketch=1;" vertex="1" parent="1">
          <mxGeometry x="375" y="515" width="260" height="30" as="geometry" />
        </mxCell>
        <mxCell id="_v5NZ5_ZNPXUxK_kAppA-3" value="" style="endArrow=classic;html=1;rounded=0;exitX=0;exitY=1;exitDx=0;exitDy=0;" edge="1" parent="1">
          <mxGeometry width="50" height="50" relative="1" as="geometry">
            <mxPoint x="765" y="545" as="sourcePoint" />
            <mxPoint x="765" y="575" as="targetPoint" />
          </mxGeometry>
        </mxCell>
        <mxCell id="_v5NZ5_ZNPXUxK_kAppA-4" value="&lt;font style=&quot;font-size: 16px;&quot;&gt;&lt;b style=&quot;&quot;&gt;param_1_end&lt;/b&gt;&lt;/font&gt;" style="text;html=1;align=center;verticalAlign=middle;resizable=0;points=[];autosize=1;strokeColor=none;fillColor=none;" vertex="1" parent="1">
          <mxGeometry x="539" y="572.5" width="130" height="30" as="geometry" />
        </mxCell>
        <mxCell id="_v5NZ5_ZNPXUxK_kAppA-5" value="" style="endArrow=classic;html=1;rounded=0;exitX=0;exitY=0;exitDx=0;exitDy=0;" edge="1" parent="1">
          <mxGeometry width="50" height="50" relative="1" as="geometry">
            <mxPoint x="635" y="515" as="sourcePoint" />
            <mxPoint x="635" y="485" as="targetPoint" />
          </mxGeometry>
        </mxCell>
        <mxCell id="_v5NZ5_ZNPXUxK_kAppA-6" value="&lt;font style=&quot;font-size: 16px;&quot;&gt;&lt;b style=&quot;&quot;&gt;param2_index&lt;/b&gt;&lt;/font&gt;" style="text;html=1;align=center;verticalAlign=middle;resizable=0;points=[];autosize=1;strokeColor=none;fillColor=none;" vertex="1" parent="1">
          <mxGeometry x="590" y="455" width="130" height="30" as="geometry" />
        </mxCell>
        <mxCell id="_v5NZ5_ZNPXUxK_kAppA-7" value="&lt;font style=&quot;font-size: 22px;&quot;&gt;&lt;b&gt;param2&lt;/b&gt;&lt;/font&gt;" style="rounded=1;whiteSpace=wrap;html=1;strokeWidth=2;fillWeight=4;hachureGap=8;hachureAngle=45;fillColor=#DEE2A7;sketch=1;" vertex="1" parent="1">
          <mxGeometry x="635" y="515" width="160" height="30" as="geometry" />
        </mxCell>
        <mxCell id="_v5NZ5_ZNPXUxK_kAppA-8" value="" style="rounded=1;whiteSpace=wrap;html=1;strokeWidth=2;fillWeight=4;hachureGap=8;hachureAngle=45;fillColor=#e51400;sketch=1;strokeColor=#B20000;fontColor=#ffffff;" vertex="1" parent="1">
          <mxGeometry x="375" y="515" width="390" height="30" as="geometry" />
        </mxCell>
        <mxCell id="_v5NZ5_ZNPXUxK_kAppA-9" value="" style="shape=curlyBracket;whiteSpace=wrap;html=1;rounded=1;labelPosition=left;verticalLabelPosition=middle;align=right;verticalAlign=middle;rotation=-90;" vertex="1" parent="1">
          <mxGeometry x="947.5" y="572.5" width="50" height="155" as="geometry" />
        </mxCell>
        <mxCell id="_v5NZ5_ZNPXUxK_kAppA-10" value="" style="shape=curlyBracket;whiteSpace=wrap;html=1;rounded=1;labelPosition=left;verticalLabelPosition=middle;align=right;verticalAlign=middle;rotation=-90;" vertex="1" parent="1">
          <mxGeometry x="690" y="570" width="50" height="160" as="geometry" />
        </mxCell>
        <mxCell id="_v5NZ5_ZNPXUxK_kAppA-11" value="&lt;font style=&quot;font-size: 16px;&quot;&gt;&lt;b style=&quot;&quot;&gt;param_2_numel&lt;/b&gt;&lt;/font&gt;" style="text;html=1;align=center;verticalAlign=middle;resizable=0;points=[];autosize=1;strokeColor=none;fillColor=none;" vertex="1" parent="1">
          <mxGeometry x="640" y="675" width="150" height="30" as="geometry" />
        </mxCell>
        <mxCell id="_v5NZ5_ZNPXUxK_kAppA-12" value="&lt;font style=&quot;font-size: 16px;&quot;&gt;&lt;b style=&quot;&quot;&gt;&lt;font style=&quot;color: light-dark(rgb(247, 8, 8), rgb(237, 237, 237));&quot;&gt;param_1_begin&lt;/font&gt;=param_2_begin=&lt;font style=&quot;color: light-dark(rgb(246, 4, 4), rgb(237, 237, 237));&quot;&gt;rank_begin&lt;/font&gt;&lt;/b&gt;&lt;/font&gt;" style="text;html=1;align=center;verticalAlign=middle;resizable=0;points=[];autosize=1;strokeColor=none;fillColor=none;" vertex="1" parent="1">
          <mxGeometry x="655" y="572.5" width="360" height="30" as="geometry" />
        </mxCell>
        <mxCell id="_v5NZ5_ZNPXUxK_kAppA-13" value="&lt;font style=&quot;font-size: 16px;&quot;&gt;&lt;b style=&quot;&quot;&gt;param_3_begin&lt;/b&gt;&lt;/font&gt;" style="text;html=1;align=center;verticalAlign=middle;resizable=0;points=[];autosize=1;strokeColor=none;fillColor=none;" vertex="1" parent="1">
          <mxGeometry x="865" y="425" width="140" height="30" as="geometry" />
        </mxCell>
        <mxCell id="_v5NZ5_ZNPXUxK_kAppA-14" value="" style="endArrow=classic;html=1;rounded=0;exitX=0;exitY=0;exitDx=0;exitDy=0;" edge="1" parent="1">
          <mxGeometry width="50" height="50" relative="1" as="geometry">
            <mxPoint x="375" y="515" as="sourcePoint" />
            <mxPoint x="375" y="485" as="targetPoint" />
          </mxGeometry>
        </mxCell>
        <mxCell id="_v5NZ5_ZNPXUxK_kAppA-15" value="&lt;font style=&quot;font-size: 16px;&quot;&gt;&lt;b style=&quot;&quot;&gt;param1_index&lt;/b&gt;&lt;/font&gt;" style="text;html=1;align=center;verticalAlign=middle;resizable=0;points=[];autosize=1;strokeColor=none;fillColor=none;" vertex="1" parent="1">
          <mxGeometry x="360" y="455" width="130" height="30" as="geometry" />
        </mxCell>
        <mxCell id="_v5NZ5_ZNPXUxK_kAppA-16" value="" style="endArrow=classic;html=1;rounded=0;exitX=0;exitY=0;exitDx=0;exitDy=0;" edge="1" parent="1">
          <mxGeometry width="50" height="50" relative="1" as="geometry">
            <mxPoint x="795" y="505" as="sourcePoint" />
            <mxPoint x="795" y="475" as="targetPoint" />
          </mxGeometry>
        </mxCell>
        <mxCell id="_v5NZ5_ZNPXUxK_kAppA-17" value="&lt;font style=&quot;font-size: 16px;&quot;&gt;&lt;b style=&quot;&quot;&gt;padding_begin&lt;/b&gt;&lt;/font&gt;" style="text;html=1;align=center;verticalAlign=middle;resizable=0;points=[];autosize=1;strokeColor=none;fillColor=none;" vertex="1" parent="1">
          <mxGeometry x="997.5" y="450" width="140" height="30" as="geometry" />
        </mxCell>
        <mxCell id="_v5NZ5_ZNPXUxK_kAppA-18" value="&lt;font style=&quot;font-size: 22px;&quot;&gt;&lt;b&gt;padding&lt;/b&gt;&lt;/font&gt;" style="rounded=1;whiteSpace=wrap;html=1;strokeWidth=2;fillWeight=4;hachureGap=8;hachureAngle=45;fillColor=#e1d5e7;sketch=1;strokeColor=#9673a6;" vertex="1" parent="1">
          <mxGeometry x="795" y="515" width="100" height="30" as="geometry" />
        </mxCell>
        <mxCell id="_v5NZ5_ZNPXUxK_kAppA-19" value="&lt;font style=&quot;font-size: 22px;&quot;&gt;&lt;b&gt;param3&lt;/b&gt;&lt;/font&gt;" style="rounded=1;whiteSpace=wrap;html=1;strokeWidth=2;fillWeight=4;hachureGap=8;hachureAngle=45;fillColor=#DEE2A7;sketch=1;" vertex="1" parent="1">
          <mxGeometry x="895" y="515" width="160" height="30" as="geometry" />
        </mxCell>
        <mxCell id="_v5NZ5_ZNPXUxK_kAppA-20" value="&lt;font style=&quot;font-size: 22px;&quot;&gt;&lt;b&gt;padding&lt;/b&gt;&lt;/font&gt;" style="rounded=1;whiteSpace=wrap;html=1;strokeWidth=2;fillWeight=4;hachureGap=8;hachureAngle=45;fillColor=#e1d5e7;sketch=1;strokeColor=#9673a6;" vertex="1" parent="1">
          <mxGeometry x="1055" y="515" width="100" height="30" as="geometry" />
        </mxCell>
        <mxCell id="_v5NZ5_ZNPXUxK_kAppA-21" value="&lt;font style=&quot;font-size: 16px;&quot;&gt;&lt;b style=&quot;&quot;&gt;param_3_numel&lt;/b&gt;&lt;/font&gt;" style="text;html=1;align=center;verticalAlign=middle;resizable=0;points=[];autosize=1;strokeColor=none;fillColor=none;" vertex="1" parent="1">
          <mxGeometry x="905" y="675" width="150" height="30" as="geometry" />
        </mxCell>
        <mxCell id="_v5NZ5_ZNPXUxK_kAppA-22" value="" style="endArrow=classic;html=1;rounded=0;exitX=0;exitY=1;exitDx=0;exitDy=0;" edge="1" parent="1">
          <mxGeometry width="50" height="50" relative="1" as="geometry">
            <mxPoint x="634" y="549" as="sourcePoint" />
            <mxPoint x="634" y="579" as="targetPoint" />
          </mxGeometry>
        </mxCell>
        <mxCell id="_v5NZ5_ZNPXUxK_kAppA-23" value="" style="endArrow=classic;html=1;rounded=0;exitX=0;exitY=0;exitDx=0;exitDy=0;" edge="1" parent="1">
          <mxGeometry width="50" height="50" relative="1" as="geometry">
            <mxPoint x="1055" y="510" as="sourcePoint" />
            <mxPoint x="1055" y="480" as="targetPoint" />
          </mxGeometry>
        </mxCell>
        <mxCell id="_v5NZ5_ZNPXUxK_kAppA-24" value="&lt;font style=&quot;font-size: 16px;&quot;&gt;&lt;b style=&quot;&quot;&gt;param_2_end&lt;/b&gt;&lt;/font&gt;" style="text;html=1;align=center;verticalAlign=middle;resizable=0;points=[];autosize=1;strokeColor=none;fillColor=none;" vertex="1" parent="1">
          <mxGeometry x="871.25" y="450" width="130" height="30" as="geometry" />
        </mxCell>
        <mxCell id="_v5NZ5_ZNPXUxK_kAppA-25" value="" style="endArrow=classic;html=1;rounded=0;exitX=0;exitY=0;exitDx=0;exitDy=0;" edge="1" parent="1">
          <mxGeometry width="50" height="50" relative="1" as="geometry">
            <mxPoint x="895" y="510" as="sourcePoint" />
            <mxPoint x="895" y="480" as="targetPoint" />
          </mxGeometry>
        </mxCell>
        <mxCell id="_v5NZ5_ZNPXUxK_kAppA-26" value="&lt;font style=&quot;font-size: 16px;&quot;&gt;&lt;b style=&quot;&quot;&gt;padding_begin&lt;/b&gt;&lt;/font&gt;" style="text;html=1;align=center;verticalAlign=middle;resizable=0;points=[];autosize=1;strokeColor=none;fillColor=none;" vertex="1" parent="1">
          <mxGeometry x="735" y="450" width="140" height="30" as="geometry" />
        </mxCell>
        <mxCell id="_v5NZ5_ZNPXUxK_kAppA-27" value="" style="endArrow=classic;html=1;rounded=0;exitX=0;exitY=0;exitDx=0;exitDy=0;" edge="1" parent="1">
          <mxGeometry width="50" height="50" relative="1" as="geometry">
            <mxPoint x="1155" y="515" as="sourcePoint" />
            <mxPoint x="1155" y="485" as="targetPoint" />
          </mxGeometry>
        </mxCell>
        <mxCell id="_v5NZ5_ZNPXUxK_kAppA-28" value="&lt;font style=&quot;font-size: 16px;&quot;&gt;&lt;b style=&quot;&quot;&gt;param_3_end&lt;/b&gt;&lt;/font&gt;" style="text;html=1;align=center;verticalAlign=middle;resizable=0;points=[];autosize=1;strokeColor=none;fillColor=none;" vertex="1" parent="1">
          <mxGeometry x="1125" y="450" width="130" height="30" as="geometry" />
        </mxCell>
      </root>
    </mxGraphModel>
  </diagram>
</mxfile>
